<svg width="458" height="396" viewBox="0 0 458 396" fill="none" xmlns="http://www.w3.org/2000/svg">
<mask id="mask0_9_3" style="mask-type:luminance" maskUnits="userSpaceOnUse" x="0" y="0" width="458" height="396">
<path d="M458 0H0V395.772H458V0Z" fill="white"/>
</mask>
<g mask="url(#mask0_9_3)">
<path d="M423.762 66.9776C427.687 68.4536 427.804 71.8227 427.215 76.0666C424.574 74.7001 421.847 73.8277 419.924 72.0728C418.928 71.1618 419.359 68.6851 419.146 66.9153C420.694 66.9091 422.407 66.4673 423.762 66.9776ZM443.132 122.335C443.933 120.703 445.597 119.438 447.086 118.281C447.278 118.133 449.189 119.457 449.528 120.384C450.808 123.873 447.993 125.562 445.909 127.776C442.859 125.757 442.037 124.566 443.132 122.335ZM274.364 391.798C271.695 387.38 269.409 383.144 266.685 379.213C264.001 375.336 261.01 371.647 257.888 368.11C256.288 366.298 254.128 364.97 252.18 363.479C248.001 360.277 243.812 357.087 239.595 353.935C236.377 351.528 233.219 349.012 229.843 346.848C218.217 339.397 206.154 332.574 194.936 324.558C185.715 317.969 178.737 309.092 177.265 297.255C176.233 288.953 177.153 280.682 178.581 272.404C180.069 263.794 181.6 255.041 181.581 246.354C181.545 229.866 175.159 216.064 160.839 206.986C156.93 204.508 152.219 203.31 147.9 201.464C144.993 200.222 142.131 198.875 139.435 197.073C151.1 193.846 161.613 196.502 172.194 203.098C180.837 208.69 185.868 222.032 185.868 222.032C187.714 228.73 189.377 234.77 191.025 240.752V245.53C189.368 257.329 187.928 269.158 186.094 280.927C183.463 297.816 189.064 311.138 203.26 320.433C215.007 328.125 227.122 335.26 239.162 342.492C241.635 343.975 244.466 344.904 247.202 345.893C249.889 346.868 250.954 345.308 250.326 342.992C249.511 339.983 248.25 337.079 247.004 334.208C243.467 326.065 237.794 320.545 228.999 317.862C217.727 314.423 207.764 308.245 198.205 301.375C192.837 297.517 190.43 292.859 192.386 286.305C194.926 277.798 197.414 269.275 199.943 260.764C201.065 256.993 202.304 253.257 203.338 249.463C203.701 248.127 203.608 246.665 203.763 244.779C210.075 246.833 216.299 249.112 222.664 250.886C249.257 258.298 275.941 258.211 302.638 251.407C305.24 250.744 307.747 249.705 310.29 248.807C312.29 248.102 312.92 247.009 311.589 245.01C310.475 243.337 309.568 241.503 308.769 239.652C308.02 237.916 307.53 236.067 306.945 234.316C309.266 203.521 353.936 207.969 353.936 207.969C358.758 211.643 363.264 215.076 368.103 218.762C377.746 212.066 383.339 202.416 384.923 190.298C386.884 175.303 384.491 160.881 378.872 146.993C372.192 130.483 370.345 113.763 375.64 96.5211C375.879 95.742 375.909 94.6741 375.565 93.9734C369.622 81.8551 370.029 69.9048 376.328 58.0627C376.428 57.8761 376.42 57.6321 376.613 56.6502C374.756 57.6844 373.167 58.3154 371.875 59.3285C361.973 67.0983 356.12 77.3821 353.855 89.6535C349.632 111.717 356.124 136.672 360.304 149.435L357.037 146.119C356.607 144.902 356.223 143.668 355.728 142.479C355.167 141.13 354.491 139.828 353.878 138.501C348.192 126.194 344.473 113.345 345.158 99.7009C345.877 85.3137 349.781 71.7181 360.284 61.3397C365.04 56.6427 371.154 52.9974 377.222 50.0552C382.174 47.6532 387.966 46.9712 393.406 45.6096C394.475 45.3421 395.665 45.2873 396.75 45.4528C397.522 45.5711 398.21 46.2257 398.937 46.6401C398.468 47.3022 398.053 48.0129 397.509 48.6065C397.228 48.9164 396.721 49.0185 396.316 49.2127C383.569 55.3272 376.345 69.3671 380.333 82.8134C383.169 92.3692 388.818 100.367 399.14 103.794C401.13 104.454 402.953 106.007 404.509 107.506C408.473 111.328 412.217 115.376 416.096 119.288C419.244 122.463 420.745 126.291 421.249 130.702C422.24 139.36 429.439 143.538 437.536 140.457C438.668 140.025 440.164 140.307 441.442 140.536C446.464 141.439 449.568 139.978 451.871 135.325C453.467 132.101 454.866 128.779 456.473 125.559C458.264 121.974 457.428 118.676 455.974 115.203C450.632 102.444 445.35 89.6573 440.269 76.7922C439.129 73.9098 439.099 70.6067 438.179 67.6123C437.14 64.2333 436.221 60.6091 434.275 57.7591C430.8 52.6663 426.653 48.0216 422.668 43.291C419.228 39.2051 418.774 37.4279 421.539 32.6711C425.696 25.5199 427.277 17.8932 426.761 8.99365C419.681 11.7911 414.195 15.7301 409.669 21.2597C404.882 27.1079 404.888 33.79 405.885 40.9002C401.783 38.7608 399.764 34.7085 399.27 27.8908C390.201 26.5155 381.019 26.1733 371.969 28.0189C350.726 32.3525 333.567 43.5909 319.175 59.6533C308.438 71.636 301.21 85.717 293.78 99.732C291.461 104.104 289.081 108.445 286.752 112.814C286.236 113.778 285.816 114.795 285.1 116.328L273.936 126.033C272.595 126.992 271.353 127.916 270.158 128.796C236.072 150.52 193.803 144.534 193.803 144.534L193.8 144.535C175.316 141.77 157.609 137.068 139.366 141.79C111.913 148.894 94.8471 166.01 88.4824 193.933C84.6629 210.691 90.5073 224.506 99.8391 237.738C106.516 247.204 115.957 253.515 125.191 259.717C141.573 270.719 148.024 286.195 148.611 305.037C148.66 306.614 148.754 308.2 148.634 309.766C148.04 317.451 152.02 322.35 158.405 325.617C163.804 328.382 169.655 330.371 174.763 333.571C185.704 340.425 196.425 347.657 206.944 355.144C209.95 357.282 212.212 360.656 214.338 363.789C216.15 366.46 218.238 367.611 221.353 367.169C223.464 366.872 225.582 366.583 227.707 366.437C232.69 366.095 235.161 369.661 232.72 373.989C231.315 376.482 231.744 378.327 233.238 380.459C235.815 384.135 238.255 387.911 240.692 391.683C242.263 394.119 244.329 395.57 247.311 395.639C256.313 395.846 265.242 395.586 274.364 391.798Z" fill="black"/>
<path d="M79.1147 160.404C52.4623 158.356 29.8587 166.775 13.75 188.534C-0.847596 208.251 -4.37681 230.076 5.85065 253.182C6.83747 255.41 8.32261 257.415 9.57526 259.523C9.9963 259.377 10.4172 259.232 10.8382 259.087C10.8382 257.029 10.7821 254.97 10.8483 252.916C11.0919 245.283 10.8989 237.595 11.7935 230.037C12.5444 223.691 15.2329 217.778 19.2348 211.905C16.0221 230.588 20.3979 248.104 22.6081 265.796C24.778 283.181 24.7612 300.475 16.9864 316.787C14.7772 321.421 12.0303 325.8 9.52934 330.294C31.2866 318.117 44.023 300.611 42.4299 274.45C56.9266 296.581 61.8725 320.1 53.4306 346.125C55.0237 344.237 56.776 342.461 58.1836 340.443C68.5347 325.608 71.3723 308.921 70.0568 291.252C68.8321 274.788 61.0324 261.049 52.0355 247.812C51.5327 247.071 51.0386 246.321 50.6117 245.535C50.481 245.296 50.5905 244.927 50.5905 243.721C57.87 248.469 64.1476 254.215 73.7083 255.686C72.5559 253.142 71.9336 251.158 70.8446 249.477C67.478 244.284 63.7182 239.337 60.5072 234.054C55.5364 225.874 53.0884 216.887 54.0156 207.296C54.6901 200.325 57.7692 194.298 63.3374 189.892C68.8159 185.56 74.5011 181.526 81.9025 181.126C82.6605 181.085 83.6624 180.243 84.0469 179.507C86.902 174.046 89.6288 168.519 92.6095 162.582C88.3158 161.872 83.7445 160.759 79.1147 160.404Z" fill="black"/>
<path d="M251.798 89.4743C241.268 91.7605 230.893 91.4233 220.675 86.399C221.62 87.6746 222.445 89.0648 223.532 90.2048C230.261 97.2727 239 99.3723 248.271 99.9834C257.327 100.58 265.904 98.7874 273.925 94.1663C273.758 103.615 254.878 115.244 237.038 117.176C236.944 117.476 236.851 117.773 236.758 118.072C239.4 118.802 242.001 119.925 244.689 120.203C262.875 122.073 276.326 114.768 284.8 98.4065C291.268 85.9211 297.38 73.2676 306.065 62.059C320.801 43.0445 338.939 28.8664 362.238 22.0512C374.355 18.5054 386.786 17.4949 399.255 19.7898C402.412 20.371 403.017 18.2441 403.996 16.7058C404.364 16.1258 403.165 13.9491 402.16 13.1775C388.931 3.0223 373.83 -0.624027 357.427 0.9557C351.067 1.56852 344.783 2.94352 338.436 3.72946C330.421 4.72113 322.519 4.35236 315.053 0.765652C314.591 0.544244 314.079 0.43062 312.793 0C316.631 7.07784 323.007 9.33548 329.006 12.6074C325.026 13.2048 321.043 13.7736 317.069 14.4034C310.084 15.511 303.123 16.7743 296.12 17.745C290.213 18.5652 284.463 17.7375 279.008 15.1961C278.607 15.0095 278.157 14.9124 277.72 14.8365C277.526 14.8016 277.305 14.9236 276.377 15.1501C284.451 23.1713 293.581 27.526 305.395 27.4526C289.823 34.4309 275.228 41.5871 258.302 40.6537C250.045 40.197 242.769 37.4179 236.063 32.7955C235.417 32.3512 234.827 31.8273 234.186 31.3767C234.026 31.266 233.763 31.3033 232.731 31.1552C233.334 32.8105 233.634 34.238 234.327 35.4377C240.84 46.7148 251.183 52.09 263.634 53.2637C270.455 53.9083 277.413 53.1081 284.329 52.9575C276.012 59.5836 266.366 64.0827 255.506 65.3994C244.545 66.7274 233.998 65.0049 224.558 58.5319L223.824 59.1106C224.291 60.3129 224.566 61.6408 225.254 62.6999C231.096 71.6658 239.849 75.8264 250.082 76.9677C259.628 78.0318 269.116 77.4941 278.287 73.9297C271.511 82.6105 262.264 87.2017 251.798 89.4743Z" fill="black"/>
<path d="M345.838 328.64C348.744 325.255 352.414 323.781 356.589 324.081C363.64 324.588 368.109 321.857 370.515 315.09C371.425 312.529 373.379 310.256 375.162 308.106C380.69 301.441 386.173 294.719 392.069 288.388C394.688 285.575 398.046 283.267 401.441 281.409C406.666 278.551 409.893 274.666 409.638 268.578C409.36 261.934 407.943 255.9 400.943 252.74C391.009 248.257 382.657 241.372 374.36 234.454C369.7 230.566 365.051 226.66 360.456 222.694C355.307 218.247 349.209 215.678 342.773 213.971C334.798 211.855 322.491 216.022 318.376 222.08C312.692 230.454 313.999 237.146 321.771 246.46C326.526 252.16 333.481 254.282 340.295 256.202C350.45 259.064 360.818 261.206 370.876 264.353C375.589 265.829 379.293 266.943 381.921 261.578C382.189 261.03 382.903 260.675 383.457 260.303C383.784 260.083 384.205 260.006 383.993 260.086C382.921 264.993 382.068 270.148 380.596 275.117C379.858 277.613 378.273 280.007 376.586 282.043C372.637 286.801 368.414 291.333 364.268 295.924C361.769 298.693 358.77 300.676 354.91 300.536C352.126 300.436 351.166 301.986 350.657 304.273C350.388 305.477 350.264 306.755 349.769 307.862C349.316 308.87 348.492 310.392 347.753 310.441C346.472 310.524 344.548 310.032 343.915 309.093C340.862 304.568 335.743 303.742 331.366 301.658C329.458 300.748 327.892 301.647 326.748 303.729C322.172 312.06 320.488 320.98 320.738 330.384C320.791 332.344 321.625 332.946 323.457 332.767C329.379 332.188 335.327 331.807 341.225 331.037C342.863 330.822 344.776 329.876 345.838 328.64Z" fill="black"/>
<path d="M445.699 297.624C450.486 293.52 451.636 288.935 449.894 282.611C446.049 268.641 445.811 254.153 445.453 239.752C445.38 236.866 446.013 233.931 446.568 231.066C448.717 219.968 445.019 214.144 434.288 210.696C421.797 206.682 409.444 202.239 397.051 197.922C395.394 197.346 393.853 196.425 392.804 195.923C390.517 201.307 388.909 206.646 386.104 211.254C383.288 215.879 379.277 219.774 375.727 224.065C380.548 228.058 386.507 227.581 392.005 228.403C399.65 229.543 407.39 230.048 415.123 230.828C417.017 227.838 419.04 224.652 421.062 221.464C421.334 221.635 421.608 221.805 421.88 221.977C421.703 224.502 421.04 227.115 421.469 229.531C422.017 232.639 422.936 235.915 424.604 238.538C427.508 243.112 428.34 248.155 429.04 253.248C430.006 260.256 430.637 267.313 431.35 274.356C431.745 278.267 430.67 281.745 427.742 284.455C425.929 286.133 426.096 287.685 427.577 289.41C428.161 290.09 428.849 290.81 429.077 291.625C429.325 292.519 429.474 293.959 428.98 294.409C428.311 295.02 426.619 295.452 426.016 295.029C423.074 292.968 420.213 294.011 417.297 294.79C416.432 295.023 415.584 295.327 414.725 295.588C409.115 297.301 408.759 297.381 410.087 303.134C411.696 310.105 413.669 317.032 416.099 323.754C417.562 327.802 418.906 327.942 422.406 325.402C426.314 322.564 430.181 319.616 433.71 316.334C435.515 314.657 437.042 312.314 437.823 309.981C439.446 305.141 441.848 300.927 445.699 297.624Z" fill="black"/>
</g>
</svg>
